Source : SONiDO(Thanks)
 
http://www.imdb.com/title/tt1825784

Format : AVI
Format/Info : Audio Video Interleave
File size : 698 MiB
Duration : 1h 14mn
Overall bit rate : 1 311 Kbps
Writing library : VirtualDub build 32842/release

Video
ID : 0
Format : MPEG-4 Visual
Format profile : Advanced Simple@L5
Format settings, BVOP : 2
Format settings, QPel : No
Format settings, GMC : No warppoints
Format settings, Matrix : Default (H.263)
Muxing mode : Packed bitstream
Codec ID : XVID
Codec ID/Hint : XviD
Duration : 1h 14mn
Bit rate : 1 174 Kbps
Width : 640 pixels
Height : 352 pixels
Display aspect ratio : 16:9
Frame rate : 23.976 fps
Color space : YUV
Chroma subsampling : 4:2:0
Bit depth : 8 bits
Scan type : Progressive
Compression mode : Lossy
Bits/(Pixel*Frame) : 0.217
Stream size : 625 MiB (90%)
Writing library : XviD 1.2.1 (UTC 2008-12-04)

Audio
ID : 1
Format : MPEG Audio
Format version : Version 1
Format profile : Layer 3
Codec ID : 55
Codec ID/Hint : MP3
Duration : 1h 14mn
Bit rate mode : Constant
Bit rate : 128 Kbps
Channel(s) : 2 channels
Sampling rate : 44.1 KHz
Compression mode : Lossy
Stream size : 68.2 MiB (10%)
Alignment : Split accross interleaves
Interleave, duration : 42 ms (1.00 video frame)
Interleave, preload duration : 500 ms
Writing library : LAME3.99r
Encoding settings : -m s -V 4 -q 3 -lowpass 17 -b 128

Plot
Follow actor J Kimball as he researches what it's like to be old for a role in an upcoming movie. When he meets the residents at The Coconuts convalescent home, he quickly discovers that his perceptions of the elderly may be off from today's reality. After being on the wrong end of some pranks, J enlists the help of his Hollywood friends to turn the tides. Mayhem ensues.
 
http://img59.imageshack.us/img59/1324/dalejr.png 
http://img812.imageshack.us/img812/7262/dale1i.png 
http://img705.imageshack.us/img705/3030/dale2e.png
